<svg xmlns="http://www.w3.org/2000/svg" viewBox="0 0 100 100" width="100" height="100">
  <defs>
    <linearGradient id="toothGradient" x1="0%" y1="0%" x2="100%" y2="100%">
      <stop offset="0%" style="stop-color:#FFFFFF;stop-opacity:1" />
      <stop offset="100%" style="stop-color:#E8F4F8;stop-opacity:1" />
    </linearGradient>
  </defs>
  <!-- Tooth body -->
  <path d="M50 10 
           C65 10 80 20 82 35
           C84 50 75 55 72 60
           L65 90 C63 95 57 95 55 90 L52 70
           C51 68 49 68 48 70 L45 90
           C43 95 37 95 35 90 L28 60
           C25 55 16 50 18 35
           C20 20 35 10 50 10 Z" 
        fill="url(#toothGradient)" 
        stroke="#0097A7" 
        stroke-width="3"/>
  <!-- Shine effect -->
  <ellipse cx="40" cy="30" rx="8" ry="12" fill="white" opacity="0.6"/>
</svg>
